HIERARCHY
ROOT Hips
{
  OFFSET -101.686 97.2904 -97.4264
  CHANNELS 6 Xposition Yposition Zposition Zrotation Xrotation Yrotation
  JOINT ToSpine
  {
    OFFSET -2.69724 7.43032 -0.144315
    CHANNELS 3 Zrotation Xrotation Yrotation
    JOINT Spine
    {
      OFFSET -0.0310711 10.7595 1.96963
      CHANNELS 3 Zrotation Xrotation Yrotation
      JOINT Spine1
      {
        OFFSET 13.1342 3.43533 0.764692
        CHANNELS 3 Zrotation Xrotation Yrotation
        JOINT Neck
        {
          OFFSET 29.8703 7.82586 -0.130764
          CHANNELS 3 Zrotation Xrotation Yrotation
          JOINT Head
          {
            OFFSET 9.52751 0.295786 -0.907742
            CHANNELS 3 Zrotation Xrotation Yrotation
            End Site
            {
              OFFSET 16.4037 0.713936 2.7358
            }
          }
        }
        JOINT LeftShoulder
        {
          OFFSET 27.5574 4.95586 2.47156
          CHANNELS 3 Zrotation Xrotation Yrotation
          JOINT LeftArm
          {
            OFFSET 1.20734 -0.998971 20.1238
            CHANNELS 3 Zrotation Xrotation Yrotation
            JOINT LeftForeArm
            {
              OFFSET 26.8049 -0.0536703 -0.155908
              CHANNELS 3 Zrotation Xrotation Yrotation
              JOINT LeftHand
              {
                OFFSET 26.6817 0 0.320147
                CHANNELS 3 Zrotation Xrotation Yrotation
                End Site
                {
                  OFFSET 18.6119 0 0.382219
                }
              }
            }
          }
        }
        JOINT RightShoulder
        {
          OFFSET 27.5927 4.71444 -2.65209
          CHANNELS 3 Zrotation Xrotation Yrotation
          JOINT RightArm
          {
            OFFSET 2.83739 -1.17114 -18.7564
            CHANNELS 3 Zrotation Xrotation Yrotation
            JOINT RightForeArm
            {
              OFFSET 28.839 -0.0548439 1.22491
              CHANNELS 3 Zrotation Xrotation Yrotation
              JOINT RightHand
              {
                OFFSET 26.5114 0 -0.101894
                CHANNELS 3 Zrotation Xrotation Yrotation
                End Site
                {
                  OFFSET 18.2168 0 0
                }
              }
            }
          }
        }
      }
    }
  }
  JOINT LeftUpLeg
  {
    OFFSET -4.76168 -1.9167 -10.2353
    CHANNELS 3 Zrotation Xrotation Yrotation
    JOINT LeftLeg
    {
      OFFSET 2.55951 -42.0585 -8.02213
      CHANNELS 3 Zrotation Xrotation Yrotation
      JOINT LeftFoot
      {
        OFFSET 3.16357 -42.5282 -3.95426
        CHANNELS 3 Zrotation Xrotation Yrotation
        JOINT LeftToeBase
        {
          OFFSET 0.346054 -6.02161 12.8035
          CHANNELS 3 Zrotation Xrotation Yrotation
          End Site
          {
            OFFSET 0.134235 -1.35082 5.13018
          }
        }
      }
    }
  }
  JOINT RightUpLeg
  {
    OFFSET -4.94151 -1.41743 10.6446
    CHANNELS 3 Zrotation Xrotation Yrotation
    JOINT RightLeg
    {
      OFFSET -2.56294 -42.0364 -7.94377
      CHANNELS 3 Zrotation Xrotation Yrotation
      JOINT RightFoot
      {
        OFFSET -3.0952 -42.555 -4.02241
        CHANNELS 3 Zrotation Xrotation Yrotation
        JOINT RightToeBase
        {
          OFFSET -0.0828122 -6.13587 12.8035
          CHANNELS 3 Zrotation Xrotation Yrotation
          End Site
          {
            OFFSET -0.131328 -1.35082 5.13018
          }
        }
      }
    }
  }
}
MOTION
Frames:	8
Frame Time:	0.0333333
-8.64894 98.0531 -91.9555 -11.2722 -68.7204 -101.054 -70.1915 0 88.8779 69.5612 70.6753 18.2713 1.31101 20.9981 2.60466 -155.198 20.3904 178.316 -160.775 60.0006 -168.286 -0.22733 -15.2009 -36.1696 -67.1471 43.9653 -92.5505 8.43937 21.5421 -26.6809 0.420957 0.000575485 0.35866 -2.05904 6.52968 45.9086 -62.8686 -34.6933 97.3936 6.04281 -16.5215 25.6813 0.58676 0.000331148 0.0646653 -54.359 4.21081 99.1642 0.1177 22.2085 -11.3342 0.161408 -10.9329 -0.961591 -0.885684 0.840422 2.37635 -54.4514 -1.84974 80.7938 1.67142 17.3769 9.082 -9.65564 -3.98872 1.37414 1.02883 -5.41177 -3.31882 
-8.68079 98.0604 -91.9228 -11.7791 -68.7395 -101.388 -70.1915 0 88.8779 69.7027 70.6772 18.5216 1.54909 21.0637 2.32605 -155.048 20.1392 178.13 -160.395 59.722 -168.703 -0.219914 -15.1738 -36.158 -66.751 43.987 -92.6958 8.62473 21.1246 -26.9503 0.420957 0.000575485 0.35866 -2.06699 6.53745 45.9875 -62.7138 -34.4827 97.5374 5.55142 -16.0665 25.4336 0.58676 0.000331148 0.0646653 -54.3346 4.8354 99.5774 -0.319471 22.4856 -10.9838 0.328559 -11.1956 -0.98759 -0.697119 0.988939 1.12966 -54.626 -1.60889 80.8426 1.72469 17.1667 9.13177 -9.67692 -3.98708 1.37618 1.04013 -5.20444 -3.57819 
-8.77413 98.0462 -91.8269 -12.5639 -68.9237 -101.908 -70.1915 0 88.8779 69.857 70.6995 18.9928 2.19927 21.2593 1.58835 -155.169 20.1115 177.747 -159.61 59.6519 -169.509 -0.218137 -15.2148 -35.9074 -64.538 43.7508 -94.2756 8.1342 19.3028 -27.1269 0.420957 0.000575485 0.35866 -2.04559 6.46563 46.0184 -62.2732 -34.5103 97.9488 5.08924 -15.1786 25.3164 0.58676 0.000331148 0.0646653 -54.6214 5.49916 100.044 -0.635628 22.6768 -11.299 0.625566 -11.2741 -1.00255 -0.59257 0.148257 2.59287 -54.8021 -1.22169 80.9582 1.78249 17.4254 9.18975 -10.0442 -4.09925 1.41018 1.14587 -5.26387 -4.43302 
-9.02548 98.0211 -91.8663 -12.5648 -68.8181 -102.029 -70.1915 0 88.8779 69.2997 70.7269 18.9008 2.10214 21.2155 1.92262 -155.078 19.9464 177.249 -158.494 59.4071 -170.643 -0.160171 -15.0687 -35.4457 -63.3033 43.9289 -95.0971 8.53384 18.4674 -27.7798 0.420957 0.000575485 0.35866 -2.0538 6.42642 46.3303 -62.3091 -34.6894 97.6902 5.76403 -15.7662 25.6584 0.58676 0.000331148 0.0646653 -54.6095 5.75852 100.153 -0.769783 22.6329 -11.5544 0.726706 -11.3257 -1.00982 -0.447037 0.2414 1.62766 -53.8749 -1.07788 81.165 1.56449 18.994 9.48161 -10.2397 -4.57023 1.42295 1.37158 -5.43013 -6.2693 
-9.5294 97.9527 -92.0157 -12.9697 -69.5562 -102.499 -70.1915 0 88.8779 73.2067 71.3763 13.3377 0.826945 21.0502 3.2279 -154.619 19.8855 176.786 -158.156 59.347 -170.522 -0.147563 -15.0793 -35.1283 -62.6513 43.7816 -95.0473 9.51858 18.8446 -28.5838 0.420957 0.000575485 0.35866 -2.04915 6.37903 46.4931 -62.3787 -35.1954 97.5393 5.48921 -14.5951 25.7654 0.58676 0.000331148 0.0646653 -55.3364 6.204 100.366 -0.662556 22.778 -11.7124 -0.324412 -11.9342 -1.02953 -0.619519 1.18708 0.32537 -53.3076 -0.651498 81.4493 1.16334 21.5025 9.43395 -10.7778 -5.41947 1.45807 1.674 -5.54849 -8.86658 
-10.3173 97.8009 -92.0922 -13.1462 -69.8958 -102.304 -70.1915 0 88.8779 74.6707 71.6525 10.6 0.293387 20.8551 4.21192 -154.447 19.6593 175.893 -157.116 59.0457 -171.607 -0.128693 -15.1345 -34.4083 -61.9236 43.7624 -95.4131 10.0023 18.1181 -29.7425 0.420957 0.000575485 0.35866 -2.00798 6.23959 46.5761 -61.0694 -35.9219 97.9859 5.03364 -11.0028 26.6455 0.58676 0.000331148 0.0646653 -55.1602 7.05547 100.215 -0.143308 23.7393 -12.1042 -1.34922 -12.7401 -1.08105 -0.624578 1.11167 0.514764 -52.2207 0.506297 82.1894 0.922174 24.2479 8.25928 -11.3448 -6.16899 1.48697 1.91737 -6.47896 -10.6426 
-11.5274 97.5478 -92.2255 -12.4281 -70.2578 -100.569 -70.1915 0 88.8779 75.6472 71.9589 8.17931 0.220714 20.6282 5.49007 -154.774 19.7444 174.57 -157.269 59.1581 -171.927 -0.189045 -15.5662 -33.592 -64.6152 43.1596 -93.7855 12.6378 19.4127 -33.5131 0.420957 0.000575485 0.35866 -1.92445 6.10139 45.9871 -62.1948 -37.6122 97.0499 3.95038 -7.62826 27.8865 0.58676 0.000331148 0.0646653 -54.1197 8.6725 99.3672 0.380633 25.8636 -12.5187 -2.60938 -13.5171 -1.13999 -0.165707 -0.0630633 0.930704 -50.9419 2.37199 83.1754 1.11716 27.5472 7.02351 -10.7046 -7.14018 1.44444 2.23135 -8.61472 -13.7234 
-13.1422 97.1204 -92.7286 -8.06045 -70.4775 -94.7307 -70.1915 0 88.8779 79.6184 72.1683 2.1378 -0.644526 20.051 7.17286 -155.743 20.0516 173.579 -159.199 59.65 -170.187 0.000159857 -15.0804 -31.954 -68.5552 41.0329 -94.1067 15.4037 19.9116 -38.5016 0.420957 0.000575485 0.35866 -1.93354 6.18663 45.7041 -65.2394 -39.1212 94.1216 1.12153 -2.08469 29.819 0.58676 0.000331148 0.0646653 -51.2708 11.1109 96.2483 -0.359407 29.6646 -13.009 -3.2847 -13.4817 -1.13013 0.679457 -2.36849 2.31225 -48.7461 4.12412 83.3191 1.63122 31.9963 5.61143 -7.57111 -10.0204 1.23809 2.29187 -9.3818 -14.4693 
